grf
version=1
nRows=14
nColumns=37
inDegrees=no
endheader
time	ground_force_1_vx	ground_force_1_vy	ground_force_1_vz	ground_force_1_px	ground_force_1_py	ground_force_1_pz	ground_moment_1_mx	ground_moment_1_my	ground_moment_1_mz	ground_force_2_vx	ground_force_2_vy	ground_force_2_vz	ground_force_2_px	ground_force_2_py	ground_force_2_pz	ground_moment_2_mx	ground_moment_2_my	ground_moment_2_mz	ground_force_3_vx	ground_force_3_vy	ground_force_3_vz	ground_force_3_px	ground_force_3_py	ground_force_3_pz	ground_moment_3_mx	ground_moment_3_my	ground_moment_3_mz	ground_force_4_vx	ground_force_4_vy	ground_force_4_vz	ground_force_4_px	ground_force_4_py	ground_force_4_pz	ground_moment_4_mx	ground_moment_4_my	ground_moment_4_mz
      0.00000000	      0.00000000	     -0.00000000	      0.00000000	      0.00000000	      0.00000000	      0.00000000	      0.00000000	      0.00000000	      0.00000000	      3.85442400	     15.42873764	   -317.29058838	   -327.89861746	  -1016.41829828	      0.00000000	      0.00000000	      0.00000000	   1739.78625316	     -3.89367426	    -17.80045666	   -307.86712646	   -275.98381892	   -806.29291411	      0.00000000	      0.00000000	     -0.00000000	  -2246.84405241	      0.00000000	     -0.00000000	      0.00000000	      0.00000000	      0.00000000	      0.00000000	      0.00000000	      0.00000000	      0.00000000
      0.01000000	      0.00000000	     -0.00000000	      0.00000000	      0.00000000	      0.00000000	      0.00000000	      0.00000000	      0.00000000	      0.00000000	      3.88134289	     15.61455059	   -314.33013916	   -327.17454129	  -1013.53869866	      0.00000000	     -0.00000000	      0.00000000	   1628.86067434	     -4.09017246	    -18.26372302	   -307.01617432	   -276.39899807	   -807.79100524	      0.00000000	     -0.00000000	     -0.00000000	  -2348.69986819	      0.00000000	     -0.00000000	      0.00000000	      0.00000000	      0.00000000	      0.00000000	      0.00000000	      0.00000000	      0.00000000
      0.02000000	      0.00000000	     -0.00000000	      0.00000000	      0.00000000	      0.00000000	      0.00000000	      0.00000000	      0.00000000	      0.00000000	      3.44370389	     15.17005348	   -314.61248779	   -327.36097525	  -1014.71763068	      0.00000000	      0.00000000	      0.00000000	   1423.79997460	     -4.19751278	    -18.14325296	   -309.27459717	   -276.42067431	   -806.47505917	      0.00000000	      0.00000000	     -0.00000000	  -2206.78073143	      0.00000000	     -0.00000000	      0.00000000	      0.00000000	      0.00000000	      0.00000000	      0.00000000	      0.00000000	      0.00000000
      0.03000000	      0.00000000	     -0.00000000	      0.00000000	      0.00000000	      0.00000000	      0.00000000	      0.00000000	      0.00000000	      0.00000000	      4.12206602	     15.16101360	   -313.41348267	   -327.51122446	  -1013.30547989	      0.00000000	      0.00000000	      0.00000000	   1744.25640351	     -4.35610122	    -18.41307983	   -310.19259644	   -276.64671308	   -806.34501868	      0.00000000	      0.00000000	     -0.00000000	  -2253.28843062	      0.00000000	     -0.00000000	      0.00000000	      0.00000000	      0.00000000	      0.00000000	      0.00000000	      0.00000000	      0.00000000
      0.04000000	      0.00000000	     -0.00000000	      0.00000000	      0.00000000	      0.00000000	      0.00000000	      0.00000000	      0.00000000	      0.00000000	      3.58590412	     14.91097927	   -315.28588867	   -327.08394152	  -1015.82609797	      0.00000000	      0.00000000	      0.00000000	   1517.77199766	     -4.16313951	    -18.23074686	   -310.01058960	   -276.26289779	   -805.78048974	      0.00000000	      0.00000000	     -0.00000000	  -2315.16579289	      0.00000000	     -0.00000000	      0.00000000	      0.00000000	      0.00000000	      0.00000000	      0.00000000	      0.00000000	      0.00000000
      0.05000000	      0.00000000	     -0.00000000	      0.00000000	      0.00000000	      0.00000000	      0.00000000	      0.00000000	      0.00000000	      0.00000000	      3.70930982	     15.47426796	   -313.97698975	   -328.17919602	  -1013.24361072	      0.00000000	      0.00000000	      0.00000000	   1557.14626813	     -4.36489459	    -18.69721947	   -311.22994995	   -277.00544612	   -805.15149456	      0.00000000	      0.00000000	     -0.00000000	  -2281.75854247	      0.00000000	     -0.00000000	      0.00000000	      0.00000000	      0.00000000	      0.00000000	      0.00000000	      0.00000000	      0.00000000
      0.06000000	      0.00000000	     -0.00000000	      0.00000000	      0.00000000	      0.00000000	      0.00000000	      0.00000000	      0.00000000	      0.00000000	      4.10368347	     15.27945042	   -313.90966797	   -328.42612776	  -1014.24809181	      0.00000000	      0.00000000	      0.00000000	   1689.79025199	     -4.18725605	    -18.52090036	   -309.06945801	   -275.65048784	   -807.85210749	      0.00000000	      0.00000000	      0.00000000	  -2261.63063586	      0.00000000	     -0.00000000	      0.00000000	      0.00000000	      0.00000000	      0.00000000	      0.00000000	      0.00000000	      0.00000000
      0.07000000	      0.00000000	     -0.00000000	      0.00000000	      0.00000000	      0.00000000	      0.00000000	      0.00000000	      0.00000000	      0.00000000	      3.71320343	     14.93518925	   -312.07788086	   -328.97713552	  -1013.98514165	      0.00000000	     -0.00000000	      0.00000000	   1645.16623289	     -4.16940851	    -18.52118074	   -310.04663086	   -275.96689587	   -804.72560018	      0.00000000	      0.00000000	     -0.00000000	  -2126.71926852	      0.00000000	     -0.00000000	      0.00000000	      0.00000000	      0.00000000	      0.00000000	      0.00000000	      0.00000000	      0.00000000
      0.08000000	      0.00000000	     -0.00000000	      0.00000000	      0.00000000	      0.00000000	      0.00000000	      0.00000000	      0.00000000	      0.00000000	      3.71364999	     15.32213879	   -314.16589355	   -328.71028700	  -1015.64866083	      0.00000000	      0.00000000	      0.00000000	   1694.07118246	     -4.16069000	    -18.32599031	   -309.62887573	   -276.32676984	   -806.61867092	      0.00000000	      0.00000000	     -0.00000000	  -2106.30577308	      0.00000000	     -0.00000000	      0.00000000	      0.00000000	      0.00000000	      0.00000000	      0.00000000	      0.00000000	      0.00000000
      0.09000000	      0.00000000	     -0.00000000	      0.00000000	      0.00000000	      0.00000000	      0.00000000	      0.00000000	      0.00000000	      0.00000000	      4.15195847	     15.32224941	   -312.85260010	   -328.15683320	  -1015.20071416	      0.00000000	      0.00000000	      0.00000000	   1651.14413199	     -3.83178252	    -18.37948193	   -309.49423218	   -275.48680953	   -805.63402774	      0.00000000	      0.00000000	     -0.00000000	  -2516.45552819	      0.00000000	     -0.00000000	      0.00000000	      0.00000000	      0.00000000	      0.00000000	      0.00000000	      0.00000000	      0.00000000
      0.10000000	      0.00000000	     -0.00000000	      0.00000000	      0.00000000	      0.00000000	      0.00000000	      0.00000000	      0.00000000	      0.00000000	      3.64151096	     15.17632675	   -312.14724731	   -328.49047905	  -1014.58848079	      0.00000000	     -0.00000000	      0.00000000	   1589.03843631	     -4.23267287	    -18.44234239	   -308.10058594	   -275.88827353	   -807.44604721	      0.00000000	      0.00000000	     -0.00000000	  -2217.21289420	      0.00000000	     -0.00000000	      0.00000000	      0.00000000	      0.00000000	      0.00000000	      0.00000000	      0.00000000	      0.00000000
      0.11000000	      0.00000000	     -0.00000000	      0.00000000	      0.00000000	      0.00000000	      0.00000000	      0.00000000	      0.00000000	      0.00000000	      3.64966559	     15.50868988	   -313.97698975	   -327.60056522	  -1014.98189495	      0.00000000	      0.00000000	      0.00000000	   1629.00645712	     -4.46070497	    -18.21096953	   -307.80068970	   -275.03331178	   -806.11866592	      0.00000000	      0.00000000	      0.00000000	  -2217.76768610	      0.00000000	     -0.00000000	      0.00000000	      0.00000000	      0.00000000	      0.00000000	      0.00000000	      0.00000000	      0.00000000
      0.12000000	      0.00000000	     -0.00000000	      0.00000000	      0.00000000	      0.00000000	      0.00000000	      0.00000000	      0.00000000	      0.00000000	      3.85961580	     15.26484108	   -313.59268188	   -327.56266862	  -1013.97065077	      0.00000000	      0.00000000	      0.00000000	   1759.63743819	     -4.74071610	    -17.76090008	   -308.08203125	   -275.41329866	   -805.57960884	      0.00000000	      0.00000000	     -0.00000000	  -2243.34459226	      0.00000000	     -0.00000000	      0.00000000	      0.00000000	      0.00000000	      0.00000000	      0.00000000	      0.00000000	      0.00000000
      0.13000000	      0.00000000	     -0.00000000	      0.00000000	      0.00000000	      0.00000000	      0.00000000	      0.00000000	      0.00000000	      0.00000000	      3.56069350	     15.35358906	   -314.23837280	   -327.07918908	  -1015.58859918	      0.00000000	      0.00000000	      0.00000000	   1544.04112256	     -4.79853501	    -18.00139385	   -308.30090332	   -275.27067584	   -804.08538620	      0.00000000	     -0.00000000	     -0.00000000	  -2418.36571340	      0.00000000	     -0.00000000	      0.00000000	      0.00000000	      0.00000000	      0.00000000	      0.00000000	      0.00000000	      0.00000000
